<svg width="20" height="21" viewBox="0 0 20 21" fill="none" xmlns="http://www.w3.org/2000/svg">
<path d="M1.71835 11.0237C1.6489 10.8366 1.6489 10.6308 1.71835 10.4437C2.39476 8.80358 3.54294 7.40123 5.01732 6.41445C6.4917 5.42766 8.22588 4.90088 10 4.90088C11.7741 4.90088 13.5083 5.42766 14.9827 6.41445C16.4571 7.40123 17.6053 8.80358 18.2817 10.4437C18.3511 10.6308 18.3511 10.8366 18.2817 11.0237C17.6053 12.6638 16.4571 14.0662 14.9827 15.0529C13.5083 16.0397 11.7741 16.5665 10 16.5665C8.22588 16.5665 6.4917 16.0397 5.01732 15.0529C3.54294 14.0662 2.39476 12.6638 1.71835 11.0237Z" stroke="black" stroke-width="1.66667" stroke-linecap="round" stroke-linejoin="round"/>
<path d="M10 13.2339C11.3807 13.2339 12.5 12.1146 12.5 10.7339C12.5 9.35317 11.3807 8.23389 10 8.23389C8.61929 8.23389 7.5 9.35317 7.5 10.7339C7.5 12.1146 8.61929 13.2339 10 13.2339Z" stroke="black" stroke-width="1.66667" stroke-linecap="round" stroke-linejoin="round"/>
</svg>
