<svg width="32" height="33" viewBox="0 0 32 33" fill="none" xmlns="http://www.w3.org/2000/svg">
<path d="M21.3334 28.5825V25.9159C21.3334 24.5014 20.7715 23.1448 19.7713 22.1446C18.7711 21.1444 17.4145 20.5825 16 20.5825H8.00002C6.58553 20.5825 5.22898 21.1444 4.22878 22.1446C3.22859 23.1448 2.66669 24.5014 2.66669 25.9159V28.5825" stroke="white" stroke-width="2.66667" stroke-linecap="round" stroke-linejoin="round"/>
<path d="M21.3333 4.75317C22.477 5.04967 23.4898 5.71753 24.2129 6.65192C24.9359 7.58632 25.3282 8.73436 25.3282 9.91584C25.3282 11.0973 24.9359 12.2454 24.2129 13.1798C23.4898 14.1142 22.477 14.782 21.3333 15.0785" stroke="white" stroke-width="2.66667" stroke-linecap="round" stroke-linejoin="round"/>
<path d="M29.3333 28.5825V25.9159C29.3324 24.7342 28.9391 23.5862 28.2151 22.6523C27.4911 21.7183 26.4775 21.0513 25.3333 20.7559" stroke="white" stroke-width="2.66667" stroke-linecap="round" stroke-linejoin="round"/>
<path d="M12 15.2492C14.9455 15.2492 17.3334 12.8614 17.3334 9.91585C17.3334 6.97033 14.9455 4.58252 12 4.58252C9.0545 4.58252 6.66669 6.97033 6.66669 9.91585C6.66669 12.8614 9.0545 15.2492 12 15.2492Z" stroke="white" stroke-width="2.66667" stroke-linecap="round" stroke-linejoin="round"/>
</svg>
