<svg width="28" height="29" viewBox="0 0 28 29" fill="none" xmlns="http://www.w3.org/2000/svg">
<path d="M2.40569 14.906C2.30846 14.6441 2.30846 14.3559 2.40569 14.094C3.35267 11.7978 4.96012 9.83454 7.02425 8.45304C9.08838 7.07154 11.5162 6.33405 14 6.33405C16.4838 6.33405 18.9117 7.07154 20.9758 8.45304C23.0399 9.83454 24.6474 11.7978 25.5944 14.094C25.6916 14.3559 25.6916 14.6441 25.5944 14.906C24.6474 17.2022 23.0399 19.1654 20.9758 20.5469C18.9117 21.9284 16.4838 22.6659 14 22.6659C11.5162 22.6659 9.08838 21.9284 7.02425 20.5469C4.96012 19.1654 3.35267 17.2022 2.40569 14.906Z" stroke="white" stroke-width="2.33333" stroke-linecap="round" stroke-linejoin="round"/>
<path d="M14 18C15.933 18 17.5 16.433 17.5 14.5C17.5 12.567 15.933 11 14 11C12.067 11 10.5 12.567 10.5 14.5C10.5 16.433 12.067 18 14 18Z" stroke="white" stroke-width="2.33333" stroke-linecap="round" stroke-linejoin="round"/>
</svg>
