<svg width="32" height="33" viewBox="0 0 32 33" fill="none" xmlns="http://www.w3.org/2000/svg">
<path d="M5.33336 19.6092C5.08105 19.61 4.83367 19.5393 4.61997 19.4052C4.40626 19.271 4.23501 19.079 4.1261 18.8514C4.01718 18.6238 3.97509 18.37 4.0047 18.1194C4.0343 17.8688 4.1344 17.6318 4.29336 17.4359L17.4934 3.83585C17.5924 3.72156 17.7273 3.64433 17.876 3.61683C18.0247 3.58933 18.1783 3.6132 18.3117 3.68452C18.445 3.75585 18.5501 3.87038 18.6098 4.00933C18.6695 4.14828 18.6801 4.30338 18.64 4.44919L16.08 12.4759C16.0045 12.6779 15.9792 12.8952 16.0062 13.1092C16.0331 13.3232 16.1116 13.5274 16.2348 13.7044C16.3581 13.8814 16.5224 14.0259 16.7137 14.1254C16.9051 14.2249 17.1177 14.2766 17.3334 14.2759H26.6667C26.919 14.275 27.1664 14.3457 27.3801 14.4799C27.5938 14.614 27.7651 14.806 27.874 15.0336C27.9829 15.2612 28.025 15.5151 27.9954 15.7656C27.9658 16.0162 27.8657 16.2532 27.7067 16.4492L14.5067 30.0492C14.4077 30.1635 14.2728 30.2407 14.1241 30.2682C13.9754 30.2957 13.8217 30.2718 13.6884 30.2005C13.555 30.1292 13.4499 30.0147 13.3903 29.8757C13.3306 29.7368 13.3199 29.5817 13.36 29.4359L15.92 21.4092C15.9955 21.2072 16.0209 20.9898 15.9939 20.7758C15.9669 20.5619 15.8885 20.3576 15.7652 20.1806C15.642 20.0036 15.4777 19.8592 15.2863 19.7596C15.095 19.6601 14.8824 19.6085 14.6667 19.6092H5.33336Z" stroke="white" stroke-width="2.66667" stroke-linecap="round" stroke-linejoin="round"/>
</svg>
